<svg width="114" height="80" viewBox="0 0 114 80" fill="none" xmlns="http://www.w3.org/2000/svg">
<path opacity="0.8" d="M65.4485 2.47273C63.776 4.12131 60.7755 4.84858 56.4466 4.65455C52.1177 4.46051 49.5107 4.55767 48.6252 4.94545C47.7398 5.33324 46.8051 4.89687 45.8214 3.63636C44.8376 2.37577 44.0505 1.55151 43.4602 1.16364C42.8699 0.775767 42.132 0.630313 41.2466 0.727273C40.3612 0.824233 39.7216 1.21213 39.3282 1.89091C38.9347 2.56969 38.6886 3.63636 38.5903 5.09091C38.492 6.54545 38.9347 8.48495 39.9184 10.9091C40.9022 13.3332 41.3942 15.3696 41.3942 17.0182C41.3942 18.6668 40.7546 19.6364 39.4757 19.9273C38.1969 20.2182 37.4097 20.5577 37.1146 20.9455C36.967 21.1395 36.8194 21.3332 36.6718 21.5273C36.8194 21.6241 36.967 21.7213 37.1146 21.8182C37.4097 22.0122 37.8031 21.9151 38.2951 21.5273C38.7872 21.1395 39.574 20.8 40.6563 20.5091C41.1973 20.3636 41.7386 20.2182 42.2796 20.0727C42.2796 20.4122 42.2796 20.7514 42.2796 21.0909C42.2796 21.7696 42.4272 22.3514 42.7223 22.8364C42.8699 23.0787 43.0175 23.3213 43.1651 23.5636C42.9192 23.6605 42.673 23.7577 42.4272 23.8545C41.9352 24.0486 41.6893 24.2423 41.6893 24.4364C41.6893 24.6304 41.7876 24.7759 41.9845 24.8727C42.1813 24.9696 42.5255 24.8727 43.0175 24.5818C43.5095 24.2909 44.0012 24.3878 44.4932 24.8727C44.9852 25.3577 44.8866 26.0849 44.1981 27.0545C43.5095 28.0241 43.1651 28.7031 43.1651 29.0909C43.1651 29.2849 43.1651 29.4787 43.1651 29.6727C43.5585 29.0909 43.9522 28.5091 44.3456 27.9273C45.1328 26.7636 46.4117 26.5696 48.1825 27.3455C49.068 27.7332 49.9534 28.1213 50.8388 28.5091C50.2485 29.0423 49.6583 29.5759 49.068 30.1091C47.8874 31.1759 46.8051 32.3878 45.8214 33.7455C44.8376 35.1031 43.7061 37.1878 42.4272 40C41.1483 42.8122 40.1643 46.2545 39.4757 50.3273C38.7872 54.4 38.4427 57.406 38.4427 59.3455C38.4427 61.2849 38.5903 62.594 38.8854 63.2727C39.1806 63.9514 39.3774 64.9213 39.4757 66.1818C39.574 67.4423 39.4264 68.1696 39.033 68.3636C38.6396 68.5577 36.5243 68.606 32.6874 68.5091C28.8505 68.4122 26.7352 68.4605 26.3417 68.6545C25.9483 68.8486 24.2264 68.8 21.1767 68.5091C18.127 68.2182 14.9294 68.0727 11.5845 68.0727C8.23958 68.0727 5.92741 68.3151 4.64855 68.8C3.36959 69.2849 2.33658 69.9151 1.54952 70.6909C0.762454 71.4668 0.270564 72.3395 0.0737906 73.3091C-0.122983 74.2787 0.0737906 75.2 0.664082 76.0727C1.25437 76.9454 3.27119 77.5759 6.71457 77.9636C10.158 78.3514 12.9619 78.5454 15.1262 78.5454C17.2905 78.5454 18.4711 78.7395 18.668 79.1273C18.8648 79.5151 21.3243 79.6605 26.0466 79.5636C30.7689 79.4668 33.2777 79.5151 33.5728 79.7091C33.868 79.9031 35.0978 80 37.2621 80C39.4264 80 42.8699 79.9031 47.5922 79.7091C52.3146 79.5151 56.0532 79.5151 58.8078 79.7091C61.5624 79.9031 68.0556 79.9031 78.2874 79.7091C88.5192 79.5151 97.0291 79.5151 103.817 79.7091C107.212 79.806 110.606 79.9031 114 80C114 79.7091 114 79.4182 114 79.1273C114 78.5454 112.524 78.1091 109.573 77.8182C106.621 77.5273 103.129 77.2849 99.0951 77.0909C95.0614 76.8969 89.7488 76.8969 83.1573 77.0909C79.8614 77.1878 76.5658 77.2849 73.2699 77.3818C74.4012 76.8969 75.5328 76.4122 76.6641 75.9273C78.927 74.9577 81.1895 73.5031 83.4524 71.5636C85.7153 69.6241 87.6338 67.3455 89.2078 64.7273C90.7818 62.1091 91.6672 59.7332 91.8641 57.6C92.0609 55.4668 92.0117 53.7696 91.7165 52.5091C91.4214 51.2486 90.8311 50.0364 89.9456 48.8727C89.0602 47.7091 88.224 46.8849 87.4369 46.4C86.6497 45.9151 85.3709 45.7213 83.6 45.8182C81.8291 45.9151 80.7961 44.3636 80.501 41.1636C80.2058 37.9636 79.7138 35.1031 79.0252 32.5818C78.3367 30.0605 77.6971 28.2182 77.1068 27.0545C76.5165 25.8909 75.8769 24.9696 75.1884 24.2909C74.4998 23.6122 73.7619 22.9818 72.9748 22.4C72.1876 21.8182 71.4497 21.4787 70.7612 21.3818C70.4167 21.3332 70.0726 21.2849 69.7282 21.2364C70.1709 20.994 70.6136 20.7514 71.0563 20.5091C71.499 20.2668 71.9417 20.0241 72.3845 19.7818C72.0893 19.7332 71.7942 19.6849 71.499 19.6364C71.2039 19.5878 70.9087 19.5395 70.6136 19.4909C70.6629 19.2969 70.7119 19.1031 70.7612 18.9091C70.8595 18.5213 71.1546 17.9878 71.6466 17.3091C72.1386 16.6304 72.4338 16 72.532 15.4182C72.6303 14.8364 73.024 14.4486 73.7126 14.2545C74.4012 14.0605 74.8439 13.7696 75.0408 13.3818C75.1391 13.1878 75.2376 12.994 75.3359 12.8C74.9425 12.8 74.5488 12.8 74.1553 12.8C73.7619 12.8 73.3682 12.8 72.9748 12.8C73.073 11.5878 73.1716 10.3759 73.2699 9.16364C73.4668 6.73949 73.4668 4.89687 73.2699 3.63636C73.073 2.37577 72.5813 1.45455 71.7942 0.872727C71.007 0.290909 70.1709 0 69.2854 0C68.4 0 67.1211 0.824233 65.4485 2.47273ZM69.7282 2.76364C70.3185 2.8606 70.7119 3.05455 70.9087 3.34545C71.1056 3.63636 71.0563 5.4304 70.7612 8.72727C70.466 12.0241 68.9903 14.0605 66.334 14.8364C63.6777 15.6122 61.5134 16.5332 59.8408 17.6C58.1682 18.6668 57.332 19.2969 57.332 19.4909C57.332 19.5878 57.332 19.6849 57.332 19.7818C57.4796 19.7818 57.6272 19.7818 57.7748 19.7818C58.0699 19.7818 58.9553 19.3455 60.4311 18.4727C61.9068 17.6 63.8252 16.8727 66.1864 16.2909C67.367 16 68.5476 15.7091 69.7282 15.4182C69.3837 16.1455 69.0396 16.8727 68.6951 17.6C68.0066 19.0545 66.334 19.8304 63.6777 19.9273C62.3495 19.9759 61.0214 20.0241 59.6932 20.0727C59.7425 20.2182 59.7915 20.3636 59.8408 20.5091C59.9391 20.8 60.9231 20.8969 62.7922 20.8C64.6614 20.7031 65.6944 20.7514 65.8913 20.9455C65.9895 21.0423 66.0881 21.1395 66.1864 21.2364C65.9895 21.4304 65.793 21.6241 65.5961 21.8182C65.2027 22.206 64.76 22.5455 64.268 22.8364C63.776 23.1273 63.1857 23.2241 62.4971 23.1273C62.1526 23.0787 61.8085 23.0304 61.4641 22.9818C61.6116 23.1273 61.7592 23.2727 61.9068 23.4182C62.0544 23.5636 62.2019 23.7091 62.3495 23.8545C62.1037 23.9514 61.8575 24.0486 61.6116 24.1455C61.1196 24.3395 60.0376 24.5818 58.365 24.8727C56.6925 25.1636 54.9709 25.2605 53.2 25.1636C51.4291 25.0668 50.0517 24.8241 49.068 24.4364C48.576 24.2423 48.0842 24.0486 47.5922 23.8545C47.7398 23.6605 47.8874 23.4668 48.035 23.2727C48.3301 22.8849 48.9204 22.6909 49.8058 22.6909C50.6913 22.6909 51.3308 22.4486 51.7243 21.9636C51.9211 21.7213 52.1177 21.4787 52.3146 21.2364C52.708 21.5759 53.1017 21.9151 53.4951 22.2545C54.2823 22.9332 55.0202 23.2727 55.7087 23.2727C56.0532 23.2727 56.3973 23.2727 56.7417 23.2727C56.6925 23.0304 56.6435 22.7878 56.5942 22.5455C56.4959 22.0605 56.1515 21.7696 55.5612 21.6727C54.9709 21.5759 54.5282 21.3332 54.233 20.9455C53.9379 20.5577 53.7903 20.1696 53.7903 19.7818C53.7903 19.394 54.1837 18.9091 54.9709 18.3273C55.758 17.7455 56.1022 17.1636 56.0039 16.5818C55.9056 16 55.0202 15.806 53.3476 16C51.675 16.194 50.8388 16.5332 50.8388 17.0182C50.8388 17.5031 51.0847 18.0364 51.5767 18.6182C52.0687 19.2 52.0687 19.7332 51.5767 20.2182C51.0847 20.7031 50.4454 21.0909 49.6583 21.3818C48.8711 21.6727 48.2808 22.1091 47.8874 22.6909C47.4939 23.2727 47.0512 23.4668 46.5592 23.2727C46.0672 23.0787 45.7721 22.8364 45.6738 22.5455C45.6245 22.4 45.5755 22.2545 45.5262 22.1091C45.9689 22.0122 46.4117 21.9151 46.8544 21.8182C47.7398 21.6241 48.1825 21.4304 48.1825 21.2364C48.1825 21.1395 48.1825 21.0423 48.1825 20.9455C47.6905 21.1395 47.1988 21.3332 46.7068 21.5273C45.7231 21.9151 45.0342 22.0122 44.6408 21.8182C44.2473 21.6241 44.0012 21.2364 43.9029 20.6545C43.8046 20.0727 44.1981 19.6364 45.0835 19.3455C45.5262 19.2 45.9689 19.0545 46.4117 18.9091C45.9196 18.9577 45.4279 19.006 44.9359 19.0545C43.9522 19.1514 43.4109 19.1031 43.3126 18.9091C43.2143 18.7151 43.2143 17.794 43.3126 16.1455C43.4109 14.4969 42.9682 12.5577 41.9845 10.3273C41.0007 8.09687 40.607 6.30313 40.8039 4.94545C40.9022 4.26676 41.0007 3.58778 41.099 2.90909C41.3942 3.00596 41.6893 3.10313 41.9845 3.2C42.5748 3.39404 43.3619 4.1696 44.3456 5.52727C45.3293 6.88495 46.2641 7.66051 47.1495 7.85455C48.035 8.04858 48.7728 8 49.3631 7.70909C49.9534 7.41818 52.4128 7.3696 56.7417 7.56364C61.0706 7.75767 64.1697 6.98182 66.0388 5.23636C67.908 3.49091 69.1379 2.66668 69.7282 2.76364ZM59.8408 13.6727C59.5456 14.2545 59.6439 14.7395 60.1359 15.1273C60.6279 15.5151 61.0706 15.5151 61.4641 15.1273C61.8575 14.7395 62.0544 14.3031 62.0544 13.8182C62.0544 13.3332 61.7592 13.0423 61.1689 12.9455C60.5786 12.8486 60.1359 13.0909 59.8408 13.6727ZM47.1495 13.9636C47.0512 14.3514 47.2478 14.7395 47.7398 15.1273C47.9857 15.3213 48.2318 15.5151 48.4777 15.7091C48.576 15.3696 48.6745 15.0304 48.7728 14.6909C48.8711 14.3514 48.9697 14.0122 49.068 13.6727C48.7728 13.6241 48.4777 13.5759 48.1825 13.5273C47.5922 13.4304 47.2478 13.5759 47.1495 13.9636ZM51.134 16.8727C51.5274 16.9213 51.9211 16.9696 52.3146 17.0182C53.1017 17.1151 53.5444 17.2605 53.6427 17.4545C53.692 17.5514 53.741 17.6486 53.7903 17.7455C53.5934 17.8423 53.3969 17.9395 53.2 18.0364C52.8066 18.2304 52.3639 18.0849 51.8718 17.6C51.626 17.3577 51.3798 17.1151 51.134 16.8727ZM69.7282 22.6909C70.5153 22.8849 71.4497 23.5151 72.532 24.5818C73.6143 25.6486 74.5981 27.2 75.4835 29.2364C76.3689 31.2727 77.1561 34.6668 77.8447 39.4182C78.5332 44.1696 78.6808 47.7577 78.2874 50.1818C77.894 52.606 77.8447 53.9636 78.1398 54.2545C78.435 54.5455 78.7301 54.6423 79.0252 54.5455C79.3204 54.4486 79.6648 53.2849 80.0583 51.0545C80.4517 48.8241 81.534 47.806 83.3049 48C85.0757 48.194 86.4039 48.6787 87.2893 49.4545C88.1748 50.2304 88.8143 51.1031 89.2078 52.0727C89.6012 53.0423 89.7981 54.4 89.7981 56.1455C89.7981 57.8909 89.4046 59.5395 88.6175 61.0909C87.8303 62.6423 86.9942 64.0486 86.1087 65.3091C85.2233 66.5696 84.0427 67.8787 82.567 69.2364C81.0913 70.594 79.0252 71.8545 76.3689 73.0182C73.7126 74.1818 71.4007 74.8122 69.433 74.9091C67.4653 75.006 65.9895 75.2 65.0058 75.4909C64.0221 75.7818 61.8575 75.8304 58.5126 75.6364C55.1677 75.4423 50.593 75.5395 44.7883 75.9273C38.9837 76.3151 35.7864 76.4122 35.1961 76.2182C34.6058 76.0241 29.1949 75.8304 18.9631 75.6364C8.7313 75.4423 3.36959 75.2 2.87767 74.9091C2.38575 74.6182 2.33658 74.0849 2.7301 73.3091C3.12362 72.5332 4.05826 71.8545 5.53398 71.2727C7.00971 70.6909 10.5515 70.5455 16.1592 70.8364C21.767 71.1273 24.866 71.1758 25.4563 70.9818C26.0466 70.7878 28.8998 70.7395 34.0155 70.8364C39.1313 70.9332 41.7386 70.8849 41.8369 70.6909C41.9352 70.4969 43.1651 70.4 45.5262 70.4C47.8874 70.4 50.9371 69.6241 54.6757 68.0727C58.4143 66.5213 60.3328 65.6486 60.4311 65.4545C60.4804 65.3577 60.5294 65.2605 60.5786 65.1636C60.4311 65.1636 60.2835 65.1636 60.1359 65.1636C59.8408 65.1636 57.9716 65.6969 54.5282 66.7636C51.0847 67.8304 48.1332 68.3151 45.6738 68.2182C43.2143 68.1213 41.9845 67.5395 41.9845 66.4727C41.9845 65.406 41.7876 64.2423 41.3942 62.9818C41.0007 61.7213 40.8039 60.3636 40.8039 58.9091C40.8039 57.4545 41.0497 54.9818 41.5417 51.4909C42.0338 48 42.8699 44.8 44.0505 41.8909C45.2311 38.9818 46.5592 36.5577 48.035 34.6182C49.5107 32.6787 51.134 31.0304 52.9049 29.6727C54.6757 28.3151 55.8563 27.5395 56.4466 27.3455C57.0369 27.1514 58.4143 26.9091 60.5786 26.6182C62.7429 26.3273 64.0711 25.9878 64.5631 25.6C65.0551 25.2122 65.842 25.1636 66.9243 25.4545C68.0066 25.7455 69.0886 25.8423 70.1709 25.7455C70.7119 25.6969 71.2532 25.6486 71.7942 25.6C71.7449 25.4545 71.6959 25.3091 71.6466 25.1636C71.5483 24.8727 70.7119 24.6787 69.1379 24.5818C68.3507 24.5332 67.5639 24.4849 66.7767 24.4364C67.0718 24.0969 67.367 23.7577 67.6621 23.4182C68.2524 22.7395 68.941 22.4969 69.7282 22.6909ZM60.8738 64.8727C60.7755 64.9696 60.6769 65.0668 60.5786 65.1636C60.7262 65.1636 60.8738 65.1636 61.0214 65.1636C61.3165 65.1636 61.5134 65.0668 61.6116 64.8727C61.6609 64.7759 61.7099 64.6787 61.7592 64.5818C61.6609 64.5818 61.5624 64.5818 61.4641 64.5818C61.2672 64.5818 61.0706 64.6787 60.8738 64.8727Z" fill="black"/>
</svg>
