<svg width="130" height="32" viewBox="0 0 130 32" fill="none" xmlns="http://www.w3.org/2000/svg">
<path d="M10.0703 14.4502V0.490195H13.1103V11.7502H18.4303V14.4502H10.0703ZM25.0949 14.6902C24.1749 14.6902 23.3349 14.5369 22.5749 14.2302C21.8149 13.9235 21.1683 13.4702 20.6349 12.8702C20.1016 12.2569 19.6883 11.5035 19.3949 10.6102C19.1016 9.70353 18.9549 8.65686 18.9549 7.4702C18.9549 6.28353 19.1016 5.24353 19.3949 4.3502C19.6883 3.44353 20.1016 2.69019 20.6349 2.09019C21.1683 1.47686 21.8149 1.01686 22.5749 0.710195C23.3349 0.403528 24.1749 0.250195 25.0949 0.250195C26.0149 0.250195 26.8549 0.403528 27.6149 0.710195C28.3749 1.01686 29.0216 1.47686 29.5549 2.09019C30.0883 2.69019 30.5016 3.44353 30.7949 4.3502C31.0883 5.24353 31.2349 6.28353 31.2349 7.4702C31.2349 8.65686 31.0883 9.70353 30.7949 10.6102C30.5016 11.5035 30.0883 12.2569 29.5549 12.8702C29.0216 13.4702 28.3749 13.9235 27.6149 14.2302C26.8549 14.5369 26.0149 14.6902 25.0949 14.6902ZM25.0949 11.9902C26.0149 11.9902 26.7283 11.6902 27.2349 11.0902C27.7549 10.4902 28.0149 9.63019 28.0149 8.51019V6.43019C28.0149 5.31019 27.7549 4.45019 27.2349 3.85019C26.7283 3.25019 26.0149 2.95019 25.0949 2.95019C24.1749 2.95019 23.4549 3.25019 22.9349 3.85019C22.4283 4.45019 22.1749 5.31019 22.1749 6.43019V8.51019C22.1749 9.63019 22.4283 10.4902 22.9349 11.0902C23.4549 11.6902 24.1749 11.9902 25.0949 11.9902ZM38.7045 3.19019V14.4502H35.6645V3.19019H31.8845V0.490195H42.4845V3.19019H38.7045ZM47.0642 0.490195V9.0502C47.0642 10.0369 47.2575 10.7769 47.6442 11.2702C48.0308 11.7502 48.6775 11.9902 49.5842 11.9902C50.4908 11.9902 51.1375 11.7502 51.5242 11.2702C51.9108 10.7769 52.1042 10.0369 52.1042 9.0502V0.490195H55.0642V8.7302C55.0642 9.75686 54.9642 10.6502 54.7642 11.4102C54.5775 12.1569 54.2642 12.7769 53.8242 13.2702C53.3842 13.7502 52.8175 14.1102 52.1242 14.3502C51.4308 14.5769 50.5842 14.6902 49.5842 14.6902C48.5842 14.6902 47.7375 14.5769 47.0442 14.3502C46.3508 14.1102 45.7842 13.7502 45.3442 13.2702C44.9042 12.7769 44.5842 12.1569 44.3842 11.4102C44.1975 10.6502 44.1042 9.75686 44.1042 8.7302V0.490195H47.0642ZM62.2109 14.6902C60.9842 14.6902 59.9442 14.4835 59.0909 14.0702C58.2375 13.6435 57.5109 13.0969 56.9109 12.4302L58.9109 10.4102C59.8575 11.4769 61.0242 12.0102 62.4109 12.0102C63.1575 12.0102 63.7109 11.8569 64.0709 11.5502C64.4309 11.2435 64.6109 10.8369 64.6109 10.3302C64.6109 9.94353 64.5042 9.62353 64.2909 9.3702C64.0775 9.10353 63.6442 8.92353 62.9909 8.83019L61.6109 8.65019C60.1309 8.46353 59.0442 8.01686 58.3509 7.31019C57.6709 6.60353 57.3309 5.66353 57.3309 4.49019C57.3309 3.86353 57.4509 3.29019 57.6909 2.77019C57.9309 2.25019 58.2709 1.80353 58.7109 1.43019C59.1642 1.05686 59.7109 0.770195 60.3509 0.570195C61.0042 0.356861 61.7442 0.250195 62.5709 0.250195C63.6242 0.250195 64.5509 0.416861 65.3509 0.750194C66.1509 1.08353 66.8375 1.57019 67.4109 2.21019L65.3909 4.25019C65.0575 3.86353 64.6509 3.55019 64.1709 3.31019C63.7042 3.05686 63.1109 2.93019 62.3909 2.93019C61.7109 2.93019 61.2042 3.05019 60.8709 3.29019C60.5375 3.53019 60.3709 3.86353 60.3709 4.29019C60.3709 4.77019 60.4975 5.11686 60.7509 5.33019C61.0175 5.54353 61.4442 5.69686 62.0309 5.79019L63.4109 6.01019C64.8509 6.23686 65.9175 6.68353 66.6109 7.35019C67.3042 8.00353 67.6509 8.93686 67.6509 10.1502C67.6509 10.8169 67.5309 11.4302 67.2909 11.9902C67.0509 12.5502 66.6975 13.0302 66.2309 13.4302C65.7775 13.8302 65.2109 14.1435 64.5309 14.3702C63.8509 14.5835 63.0775 14.6902 62.2109 14.6902ZM74.1379 14.4502V0.490195H80.7379C81.3912 0.490195 81.9779 0.603528 82.4979 0.830194C83.0179 1.04353 83.4579 1.34353 83.8179 1.73019C84.1912 2.11686 84.4779 2.59019 84.6779 3.1502C84.8779 3.69686 84.9779 4.29686 84.9779 4.95019C84.9779 5.61686 84.8779 6.22353 84.6779 6.7702C84.4779 7.31686 84.1912 7.78353 83.8179 8.1702C83.4579 8.55686 83.0179 8.86353 82.4979 9.0902C81.9779 9.30353 81.3912 9.4102 80.7379 9.4102H77.1779V14.4502H74.1379ZM77.1779 6.7702H80.3779C80.8312 6.7702 81.1846 6.65686 81.4379 6.43019C81.7046 6.19019 81.8379 5.84353 81.8379 5.3902V4.5102C81.8379 4.05686 81.7046 3.71686 81.4379 3.49019C81.1846 3.25019 80.8312 3.13019 80.3779 3.13019H77.1779V6.7702ZM92.4829 14.6902C91.5629 14.6902 90.7229 14.5369 89.9629 14.2302C89.2029 13.9235 88.5562 13.4702 88.0229 12.8702C87.4896 12.2569 87.0762 11.5035 86.7829 10.6102C86.4896 9.70353 86.3429 8.65686 86.3429 7.4702C86.3429 6.28353 86.4896 5.24353 86.7829 4.3502C87.0762 3.44353 87.4896 2.69019 88.0229 2.09019C88.5562 1.47686 89.2029 1.01686 89.9629 0.710195C90.7229 0.403528 91.5629 0.250195 92.4829 0.250195C93.4029 0.250195 94.2429 0.403528 95.0029 0.710195C95.7629 1.01686 96.4096 1.47686 96.9429 2.09019C97.4762 2.69019 97.8896 3.44353 98.1829 4.3502C98.4762 5.24353 98.6229 6.28353 98.6229 7.4702C98.6229 8.65686 98.4762 9.70353 98.1829 10.6102C97.8896 11.5035 97.4762 12.2569 96.9429 12.8702C96.4096 13.4702 95.7629 13.9235 95.0029 14.2302C94.2429 14.5369 93.4029 14.6902 92.4829 14.6902ZM92.4829 11.9902C93.4029 11.9902 94.1162 11.6902 94.6229 11.0902C95.1429 10.4902 95.4029 9.63019 95.4029 8.51019V6.43019C95.4029 5.31019 95.1429 4.45019 94.6229 3.85019C94.1162 3.25019 93.4029 2.95019 92.4829 2.95019C91.5629 2.95019 90.8429 3.25019 90.3229 3.85019C89.8162 4.45019 89.5629 5.31019 89.5629 6.43019V8.51019C89.5629 9.63019 89.8162 10.4902 90.3229 11.0902C90.8429 11.6902 91.5629 11.9902 92.4829 11.9902ZM105.04 7.8502L103.7 5.05019H103.64V14.4502H100.78V0.490195H104.1L107.92 7.09019L109.26 9.8902H109.32V0.490195H112.18V14.4502H108.86L105.04 7.8502ZM114.873 0.490195H120.133C121.053 0.490195 121.893 0.636861 122.653 0.930194C123.413 1.22353 124.06 1.66353 124.593 2.2502C125.126 2.82353 125.54 3.55019 125.833 4.43019C126.126 5.29686 126.273 6.3102 126.273 7.4702C126.273 8.63019 126.126 9.65019 125.833 10.5302C125.54 11.3969 125.126 12.1235 124.593 12.7102C124.06 13.2835 123.413 13.7169 122.653 14.0102C121.893 14.3035 121.053 14.4502 120.133 14.4502H114.873V0.490195ZM120.133 11.7502C121.04 11.7502 121.753 11.4969 122.273 10.9902C122.793 10.4835 123.053 9.6702 123.053 8.55019V6.39019C123.053 5.27019 122.793 4.45686 122.273 3.95019C121.753 3.44353 121.04 3.19019 120.133 3.19019H117.913V11.7502H120.133ZM9.73915 31.4502L8.73915 28.1302H4.07915L3.07915 31.4502H-0.00084836L4.59915 17.4902H8.35915L12.8992 31.4502H9.73915ZM6.43915 20.2502H6.33915L4.79915 25.5502H7.99915L6.43915 20.2502ZM18.9706 31.6902C17.7439 31.6902 16.7039 31.4835 15.8506 31.0702C14.9972 30.6435 14.2706 30.0969 13.6706 29.4302L15.6706 27.4102C16.6172 28.4769 17.7839 29.0102 19.1706 29.0102C19.9172 29.0102 20.4706 28.8569 20.8306 28.5502C21.1906 28.2435 21.3706 27.8369 21.3706 27.3302C21.3706 26.9435 21.2639 26.6235 21.0506 26.3702C20.8372 26.1035 20.4039 25.9235 19.7506 25.8302L18.3706 25.6502C16.8906 25.4635 15.8039 25.0169 15.1106 24.3102C14.4306 23.6035 14.0906 22.6635 14.0906 21.4902C14.0906 20.8635 14.2106 20.2902 14.4506 19.7702C14.6906 19.2502 15.0306 18.8035 15.4706 18.4302C15.9239 18.0569 16.4706 17.7702 17.1106 17.5702C17.7639 17.3569 18.5039 17.2502 19.3306 17.2502C20.3839 17.2502 21.3106 17.4169 22.1106 17.7502C22.9106 18.0835 23.5972 18.5702 24.1706 19.2102L22.1506 21.2502C21.8172 20.8635 21.4106 20.5502 20.9306 20.3102C20.4639 20.0569 19.8706 19.9302 19.1506 19.9302C18.4706 19.9302 17.9639 20.0502 17.6306 20.2902C17.2972 20.5302 17.1306 20.8635 17.1306 21.2902C17.1306 21.7702 17.2572 22.1169 17.5106 22.3302C17.7772 22.5435 18.2039 22.6969 18.7906 22.7902L20.1706 23.0102C21.6106 23.2369 22.6772 23.6835 23.3706 24.3502C24.0639 25.0035 24.4106 25.9369 24.4106 27.1502C24.4106 27.8169 24.2906 28.4302 24.0506 28.9902C23.8106 29.5502 23.4572 30.0302 22.9906 30.4302C22.5372 30.8302 21.9706 31.1435 21.2906 31.3702C20.6106 31.5835 19.8372 31.6902 18.9706 31.6902ZM30.7976 31.6902C29.5709 31.6902 28.5309 31.4835 27.6776 31.0702C26.8243 30.6435 26.0976 30.0969 25.4976 29.4302L27.4976 27.4102C28.4443 28.4769 29.6109 29.0102 30.9976 29.0102C31.7443 29.0102 32.2976 28.8569 32.6576 28.5502C33.0176 28.2435 33.1976 27.8369 33.1976 27.3302C33.1976 26.9435 33.0909 26.6235 32.8776 26.3702C32.6643 26.1035 32.2309 25.9235 31.5776 25.8302L30.1976 25.6502C28.7176 25.4635 27.6309 25.0169 26.9376 24.3102C26.2576 23.6035 25.9176 22.6635 25.9176 21.4902C25.9176 20.8635 26.0376 20.2902 26.2776 19.7702C26.5176 19.2502 26.8576 18.8035 27.2976 18.4302C27.7509 18.0569 28.2976 17.7702 28.9376 17.5702C29.5909 17.3569 30.3309 17.2502 31.1576 17.2502C32.2109 17.2502 33.1376 17.4169 33.9376 17.7502C34.7376 18.0835 35.4243 18.5702 35.9976 19.2102L33.9776 21.2502C33.6443 20.8635 33.2376 20.5502 32.7576 20.3102C32.2909 20.0569 31.6976 19.9302 30.9776 19.9302C30.2976 19.9302 29.7909 20.0502 29.4576 20.2902C29.1243 20.5302 28.9576 20.8635 28.9576 21.2902C28.9576 21.7702 29.0843 22.1169 29.3376 22.3302C29.6043 22.5435 30.0309 22.6969 30.6176 22.7902L31.9976 23.0102C33.4376 23.2369 34.5043 23.6835 35.1976 24.3502C35.8909 25.0035 36.2376 25.9369 36.2376 27.1502C36.2376 27.8169 36.1176 28.4302 35.8776 28.9902C35.6376 29.5502 35.2843 30.0302 34.8176 30.4302C34.3643 30.8302 33.7976 31.1435 33.1176 31.3702C32.4376 31.5835 31.6643 31.6902 30.7976 31.6902ZM43.9781 31.6902C43.0581 31.6902 42.2181 31.5369 41.4581 31.2302C40.6981 30.9235 40.0514 30.4702 39.5181 29.8702C38.9847 29.2569 38.5714 28.5035 38.2781 27.6102C37.9847 26.7035 37.8381 25.6569 37.8381 24.4702C37.8381 23.2835 37.9847 22.2435 38.2781 21.3502C38.5714 20.4435 38.9847 19.6902 39.5181 19.0902C40.0514 18.4769 40.6981 18.0169 41.4581 17.7102C42.2181 17.4035 43.0581 17.2502 43.9781 17.2502C44.8981 17.2502 45.7381 17.4035 46.4981 17.7102C47.2581 18.0169 47.9047 18.4769 48.4381 19.0902C48.9714 19.6902 49.3847 20.4435 49.6781 21.3502C49.9714 22.2435 50.1181 23.2835 50.1181 24.4702C50.1181 25.6569 49.9714 26.7035 49.6781 27.6102C49.3847 28.5035 48.9714 29.2569 48.4381 29.8702C47.9047 30.4702 47.2581 30.9235 46.4981 31.2302C45.7381 31.5369 44.8981 31.6902 43.9781 31.6902ZM43.9781 28.9902C44.8981 28.9902 45.6114 28.6902 46.1181 28.0902C46.6381 27.4902 46.8981 26.6302 46.8981 25.5102V23.4302C46.8981 22.3102 46.6381 21.4502 46.1181 20.8502C45.6114 20.2502 44.8981 19.9502 43.9781 19.9502C43.0581 19.9502 42.3381 20.2502 41.8181 20.8502C41.3114 21.4502 41.0581 22.3102 41.0581 23.4302V25.5102C41.0581 26.6302 41.3114 27.4902 41.8181 28.0902C42.3381 28.6902 43.0581 28.9902 43.9781 28.9902ZM57.9154 31.6902C56.9687 31.6902 56.1154 31.5435 55.3554 31.2502C54.5954 30.9435 53.9487 30.4969 53.4154 29.9102C52.8821 29.3102 52.4687 28.5702 52.1754 27.6902C51.8821 26.7969 51.7354 25.7569 51.7354 24.5702C51.7354 23.3969 51.8821 22.3569 52.1754 21.4502C52.4687 20.5302 52.8821 19.7635 53.4154 19.1502C53.9487 18.5235 54.5954 18.0502 55.3554 17.7302C56.1154 17.4102 56.9687 17.2502 57.9154 17.2502C59.2087 17.2502 60.2754 17.5169 61.1154 18.0502C61.9554 18.5702 62.6287 19.3969 63.1354 20.5302L60.5154 21.8902C60.3287 21.3035 60.0354 20.8369 59.6354 20.4902C59.2487 20.1302 58.6754 19.9502 57.9154 19.9502C57.0221 19.9502 56.3021 20.2435 55.7554 20.8302C55.2221 21.4035 54.9554 22.2435 54.9554 23.3502V25.5902C54.9554 26.6969 55.2221 27.5435 55.7554 28.1302C56.3021 28.7035 57.0221 28.9902 57.9154 28.9902C58.6621 28.9902 59.2554 28.7902 59.6954 28.3902C60.1487 27.9769 60.4821 27.4835 60.6954 26.9102L63.1754 28.3502C62.6554 29.4169 61.9687 30.2435 61.1154 30.8302C60.2754 31.4035 59.2087 31.6902 57.9154 31.6902ZM64.3827 31.4502V29.0302H66.1827V19.9102H64.3827V17.4902H71.0227V19.9102H69.2227V29.0302H71.0227V31.4502H64.3827ZM81.7756 31.4502L80.7756 28.1302H76.1156L75.1156 31.4502H72.0356L76.6356 17.4902H80.3956L84.9356 31.4502H81.7756ZM78.4756 20.2502H78.3756L76.8356 25.5502H80.0356L78.4756 20.2502ZM90.9984 20.1902V31.4502H87.9584V20.1902H84.1784V17.4902H94.7784V20.1902H90.9984ZM95.8599 31.4502V29.0302H97.6599V19.9102H95.8599V17.4902H102.5V19.9102H100.7V29.0302H102.5V31.4502H95.8599ZM110.253 31.6902C109.333 31.6902 108.493 31.5369 107.733 31.2302C106.973 30.9235 106.326 30.4702 105.793 29.8702C105.259 29.2569 104.846 28.5035 104.553 27.6102C104.259 26.7035 104.113 25.6569 104.113 24.4702C104.113 23.2835 104.259 22.2435 104.553 21.3502C104.846 20.4435 105.259 19.6902 105.793 19.0902C106.326 18.4769 106.973 18.0169 107.733 17.7102C108.493 17.4035 109.333 17.2502 110.253 17.2502C111.173 17.2502 112.013 17.4035 112.773 17.7102C113.533 18.0169 114.179 18.4769 114.713 19.0902C115.246 19.6902 115.659 20.4435 115.953 21.3502C116.246 22.2435 116.393 23.2835 116.393 24.4702C116.393 25.6569 116.246 26.7035 115.953 27.6102C115.659 28.5035 115.246 29.2569 114.713 29.8702C114.179 30.4702 113.533 30.9235 112.773 31.2302C112.013 31.5369 111.173 31.6902 110.253 31.6902ZM110.253 28.9902C111.173 28.9902 111.886 28.6902 112.393 28.0902C112.913 27.4902 113.173 26.6302 113.173 25.5102V23.4302C113.173 22.3102 112.913 21.4502 112.393 20.8502C111.886 20.2502 111.173 19.9502 110.253 19.9502C109.333 19.9502 108.613 20.2502 108.093 20.8502C107.586 21.4502 107.333 22.3102 107.333 23.4302V25.5102C107.333 26.6302 107.586 27.4902 108.093 28.0902C108.613 28.6902 109.333 28.9902 110.253 28.9902ZM122.81 24.8502L121.47 22.0502H121.41V31.4502H118.55V17.4902H121.87L125.69 24.0902L127.03 26.8902H127.09V17.4902H129.95V31.4502H126.63L122.81 24.8502Z" fill="black"/>
</svg>
