<svg width="16" height="16" viewBox="0 0 16 16" fill="none" xmlns="http://www.w3.org/2000/svg">
<g clip-path="url(#clip0_15078_2141)">
<path d="M8.00667 0.990234C6.61867 0.990234 5.504 1.00357 5.51133 1.02157C5.518 1.0349 6.65 3.02223 8.02733 5.4349L10.534 9.81757H13.0407C14.428 9.81757 15.5427 9.80423 15.5353 9.78623C15.532 9.7729 14.3967 7.78557 13.0187 5.3729L10.512 0.990234H8.00667ZM4.83333 2.14357C4.02019 3.54406 3.21352 4.9483 2.41333 6.35624L0 10.5789L1.26 12.7776L2.51667 14.9756L4.93 10.7522L7.342 6.53224L6.08867 4.3409C5.4 3.13623 4.83667 2.14757 4.83333 2.14357ZM6.33933 10.5789L6.204 10.8109C6.128 10.9429 5.564 11.9256 4.95067 13.0022C4.576 13.6638 4.19866 14.3238 3.81867 14.9822C3.812 14.9996 5.97867 15.0102 8.63333 15.0102H13.4627L14.66 12.9056C15.3213 11.7496 15.8933 10.7522 15.9307 10.6902L16 10.5789H11.1673H6.33933Z" fill="white"/>
</g>
<defs>
<clipPath id="clip0_15078_2141">
<rect width="16" height="16" fill="white"/>
</clipPath>
</defs>
</svg>
