<svg width="17" height="16" viewBox="0 0 17 16" fill="none" xmlns="http://www.w3.org/2000/svg">
<path d="M8.33317 1.33301C7.45769 1.33301 6.59078 1.50545 5.78195 1.84048C4.97311 2.17551 4.23818 2.66657 3.61913 3.28563C2.36888 4.53587 1.6665 6.23156 1.6665 7.99967C1.6665 10.9463 3.57984 13.4463 6.2265 14.333C6.55984 14.3863 6.6665 14.1797 6.6665 13.9997V12.873C4.81984 13.273 4.4265 11.9797 4.4265 11.9797C4.11984 11.2063 3.6865 10.9997 3.6865 10.9997C3.07984 10.5863 3.73317 10.5997 3.73317 10.5997C4.39984 10.6463 4.75317 11.2863 4.75317 11.2863C5.33317 12.2997 6.31317 11.9997 6.69317 11.8397C6.75317 11.4063 6.9265 11.113 7.11317 10.9463C5.63317 10.7797 4.07984 10.2063 4.07984 7.66634C4.07984 6.92634 4.33317 6.33301 4.7665 5.85967C4.69984 5.69301 4.4665 4.99967 4.83317 4.09967C4.83317 4.09967 5.39317 3.91967 6.6665 4.77967C7.19317 4.63301 7.7665 4.55967 8.33317 4.55967C8.89984 4.55967 9.47317 4.63301 9.99984 4.77967C11.2732 3.91967 11.8332 4.09967 11.8332 4.09967C12.1998 4.99967 11.9665 5.69301 11.8998 5.85967C12.3332 6.33301 12.5865 6.92634 12.5865 7.66634C12.5865 10.213 11.0265 10.773 9.53984 10.9397C9.77984 11.1463 9.99984 11.553 9.99984 12.173V13.9997C9.99984 14.1797 10.1065 14.393 10.4465 14.333C13.0932 13.4397 14.9998 10.9463 14.9998 7.99967C14.9998 7.1242 14.8274 6.25729 14.4924 5.44845C14.1573 4.63961 13.6663 3.90469 13.0472 3.28563C12.4282 2.66657 11.6932 2.17551 10.8844 1.84048C10.0756 1.50545 9.20865 1.33301 8.33317 1.33301Z" fill="white"/>
</svg>
