<svg width="16" height="16" viewBox="0 0 16 16" fill="none" xmlns="http://www.w3.org/2000/svg">
<path d="M8.00001 1.33301C7.12453 1.33301 6.25762 1.50545 5.44879 1.84048C4.63995 2.17551 3.90502 2.66657 3.28596 3.28563C2.03572 4.53587 1.33334 6.23156 1.33334 7.99967C1.33334 10.9463 3.24668 13.4463 5.89334 14.333C6.22668 14.3863 6.33334 14.1797 6.33334 13.9997V12.873C4.48668 13.273 4.09334 11.9797 4.09334 11.9797C3.78668 11.2063 3.35334 10.9997 3.35334 10.9997C2.74668 10.5863 3.40001 10.5997 3.40001 10.5997C4.06668 10.6463 4.42001 11.2863 4.42001 11.2863C5.00001 12.2997 5.98001 11.9997 6.36001 11.8397C6.42001 11.4063 6.59334 11.113 6.78001 10.9463C5.30001 10.7797 3.74668 10.2063 3.74668 7.66634C3.74668 6.92634 4.00001 6.33301 4.43334 5.85967C4.36668 5.69301 4.13334 4.99967 4.50001 4.09967C4.50001 4.09967 5.06001 3.91967 6.33334 4.77967C6.86001 4.63301 7.43334 4.55967 8.00001 4.55967C8.56668 4.55967 9.14001 4.63301 9.66668 4.77967C10.94 3.91967 11.5 4.09967 11.5 4.09967C11.8667 4.99967 11.6333 5.69301 11.5667 5.85967C12 6.33301 12.2533 6.92634 12.2533 7.66634C12.2533 10.213 10.6933 10.773 9.20668 10.9397C9.44668 11.1463 9.66668 11.553 9.66668 12.173V13.9997C9.66668 14.1797 9.77334 14.393 10.1133 14.333C12.76 13.4397 14.6667 10.9463 14.6667 7.99967C14.6667 7.1242 14.4942 6.25729 14.1592 5.44845C13.8242 4.63961 13.3331 3.90469 12.7141 3.28563C12.095 2.66657 11.3601 2.17551 10.5512 1.84048C9.7424 1.50545 8.87549 1.33301 8.00001 1.33301Z" fill="#002292"/>
</svg>
